<?xml version="1.0" ?><!DOCTYPE svg  PUBLIC '-//W3C//DTD SVG 1.1//EN'  'http://www.w3.org/Graphics/SVG/1.1/DTD/svg11.dtd'><svg height="512px" style="enable-background:new 0 0 512 512;" version="1.1" viewBox="0 0 512 512" width="512px" xml:space="preserve" xmlns="http://www.w3.org/2000/svg" xmlns:xlink="http://www.w3.org/1999/xlink">
  <g id="_x32_8-twitch">
    <g>
      <path style="fill:#4a8dcb;" d="M216,367.692L261.062,335h74.375L394,271.971V104H142v231h74V367.692z M310,167h21v84h-21V167z M247,167h21v84h-21V167z"/>
      <path style="fill:#4a8dcb;" d="M376,16H136C69.726,16,16,69.726,16,136v240c0,66.274,53.726,120,120,120h240c66.274,0,120-53.726,120-120V136    C496,69.726,442.274,16,376,16z M415,287.483L331.236,377h-62.922l-41.951,42H184v-42h-83V146.22L121.498,83H415V287.483z"/>
    </g>
  </g>
  <g id="Layer_1"/>
</svg>
